# xmcd
#
# Track frame offsets:
#	150
#	12925
#	27230
#	44606
#	58753
#	72841
#	84229
#	99892
#	112127
#
# Disc length: 1782 seconds
#
# Revision: 1
# Processed by: cddbd v1.5.2PL0 Copyright (c) Steve Scherf et al.
# Submitted via: EasyCDDAExtractor 8.2.3.1
#
DISCID=6f06f409
DTITLE=Wendel Adkins - Sundowners
DYEAR=1977
DGENRE=Country
TTITLE0=I Will
TTITLE1=Show Me The Way
TTITLE2=Willie Didn't Win
TTITLE3=Flying Too High
TTITLE4=Texas Moon
TTITLE5=Laid Back Country Picker
TTITLE6=The Morning After The Night Before
TTITLE7=I Don't Like Leaving You
TTITLE8=Desperate Cowboy
EXTD=
EXTT0=
EXTT1=
EXTT2=
EXTT3=
EXTT4=
EXTT5=
EXTT6=
EXTT7=
EXTT8=
PLAYORDER=
